<svg id="visual" viewBox="0 0 900 600" width="900" height="600" xmlns="http://www.w3.org/2000/svg" xmlns:xlink="http://www.w3.org/1999/xlink" version="1.1"><rect x="0" y="0" width="900" height="600" fill="#FFFAE5"></rect><defs><linearGradient id="grad1_0" x1="33.3%" y1="100%" x2="100%" y2="0%"><stop offset="20%" stop-color="#a1b986" stop-opacity="1"></stop><stop offset="80%" stop-color="#a1b986" stop-opacity="1"></stop></linearGradient></defs><defs><linearGradient id="grad1_1" x1="33.3%" y1="100%" x2="100%" y2="0%"><stop offset="20%" stop-color="#a1b986" stop-opacity="1"></stop><stop offset="80%" stop-color="#fffae5" stop-opacity="1"></stop></linearGradient></defs><defs><linearGradient id="grad2_0" x1="0%" y1="100%" x2="66.7%" y2="0%"><stop offset="20%" stop-color="#a1b986" stop-opacity="1"></stop><stop offset="80%" stop-color="#a1b986" stop-opacity="1"></stop></linearGradient></defs><defs><linearGradient id="grad2_1" x1="0%" y1="100%" x2="66.7%" y2="0%"><stop offset="20%" stop-color="#fffae5" stop-opacity="1"></stop><stop offset="80%" stop-color="#a1b986" stop-opacity="1"></stop></linearGradient></defs><g transform="translate(900, 600)"><path d="M-378.6 0C-365.3 -45.7 -352 -91.4 -336.3 -139.3C-320.6 -187.2 -302.4 -237.2 -267.7 -267.7C-233 -298.2 -181.7 -309.1 -134.3 -324.3C-86.9 -339.5 -43.5 -359 0 -378.6L0 0Z" fill="#d4d8b2"></path><path d="M-189.3 0C-182.6 -22.9 -176 -45.7 -168.1 -69.6C-160.3 -93.6 -151.2 -118.6 -133.8 -133.8C-116.5 -149.1 -90.8 -154.5 -67.2 -162.1C-43.5 -169.7 -21.7 -179.5 0 -189.3L0 0Z" fill="#a1b986"></path></g><g transform="translate(0, 0)"><path d="M378.6 0C356.7 42.8 334.9 85.6 319.7 132.4C304.5 179.2 296 230 267.7 267.7C239.4 305.4 191.4 330.1 143.5 346.5C95.6 362.8 47.8 370.7 0 378.6L0 0Z" fill="#d4d8b2"></path><path d="M189.3 0C178.4 21.4 167.4 42.8 159.8 66.2C152.2 89.6 148 115 133.8 133.8C119.7 152.7 95.7 165.1 71.8 173.2C47.8 181.4 23.9 185.3 0 189.3L0 0Z" fill="#a1b986"></path></g></svg>